<svg xmlns="http://www.w3.org/2000/svg" version="1.1" xmlns:xlink="http://www.w3.org/1999/xlink" xmlns:svgjs="http://svgjs.dev/svgjs" width="105" height="105"><svg xmlns="http://www.w3.org/2000/svg" enable-background="new 0 0 105 105" viewBox="0 0 105 105" width="105" height="105"><path d="M103.5,53l-0.1,19.3c0,15.2-26.1,24.3-41.3,24.3c-28.8,0-56.2-19.1-60-31.5c-0.4-1.3-0.6-2.6-0.6-3.9l0.1-18.9    c7.1,12.1,34.1,28.7,60.7,28.7C82,71.1,97.9,61.4,103.5,53z"></path><path d="M102.9,39.9c-5-16.5-36.7-29.8-55.5-31.3c-12-1-23.2,1.6-33.1,7.5C4,22.3-0.1,29.2,2.2,36.7c2.1,6.8,8.6,13.4,19.5,19.7    c13.4,7.7,27.4,11.8,40.6,11.8C80,68.2,107.9,56.5,102.9,39.9z M61,52.8C50.4,51,31.1,42,26,33.4c-1.2-2.1-1.8-4.5,3-7.4    c4.6-2.8,9.9-3.1,15.2-2.2c10.6,1.9,29.9,10.8,35,19.4C83.2,50.2,70.6,54.5,61,52.8z"></path></svg><style>@media (prefers-color-scheme: light) { :root { filter: none; } }
@media (prefers-color-scheme: dark) { :root { filter: invert(100%); } }
</style></svg>